# xmcd CD database file
#
# Track frame offsets:
#	150
#	20144
#	39855
#	55996
#	73986
#	96205
#	131075
#	149617
#	165819
#	185749
#	205145
#	221732
#	245187
#
# Disc length: 3503 seconds
#
# Revision: 2
# Processed by: cddbd v1.5.2PL0 Copyright (c) Steve Scherf et al.
# Submitted via: CDex 1.51
#
DISCID=cd0dad0d
DTITLE=Lösekes Blues Gang - Cancun
DYEAR=1900
DGENRE=Blues
TTITLE0=Lousiana
TTITLE1=Can get the Stuff no more
TTITLE2=Down at Congo Square
TTITLE3=Cancun
TTITLE4=Feels like rain
TTITLE5=That kind of feeling
TTITLE6=Ten thousand spoons
TTITLE7=Hard, hard work
TTITLE8=Louise
TTITLE9=Kiss your blues away
TTITLE10=It´s raining dogs
TTITLE11=Night Owl
TTITLE12=At the bar
EXTD=
EXTT0=
EXTT1=
EXTT2=
EXTT3=
EXTT4=
EXTT5=
EXTT6=
EXTT7=
EXTT8=
EXTT9=
EXTT10=
EXTT11=
EXTT12=
PLAYORDER=
